<?xml version="1.0" encoding="UTF-8" standalone="no"?>
<!DOCTYPE svg PUBLIC "-//W3C//DTD SVG 1.1//EN" "http://www.w3.org/Graphics/SVG/1.1/DTD/svg11.dtd">
<svg width="100%" height="100%" viewBox="0 0 800 600" version="1.1" xmlns="http://www.w3.org/2000/svg" xmlns:xlink="http://www.w3.org/1999/xlink" xml:space="preserve" xmlns:serif="http://www.serif.com/" style="fill-rule:evenodd;clip-rule:evenodd;stroke-linecap:round;stroke-linejoin:round;stroke-miterlimit:1.5;">
    <rect x="0" y="0" width="800" height="600" style="fill:rgb(20,64,90);"/>
    <g opacity="0.5">
        <path d="M100.315,0L100.315,612.03" style="fill:none;stroke:rgb(255,243,243);stroke-width:1px;"/>
        <g transform="matrix(1,0,0,1,101.273,0.058987)">
            <path d="M100.315,0L100.315,612.03" style="fill:none;stroke:rgb(255,243,243);stroke-width:1px;"/>
        </g>
        <g transform="matrix(1,0,0,1,198.094,3.14597)">
            <path d="M100.315,0L100.315,612.03" style="fill:none;stroke:rgb(255,243,243);stroke-width:1px;"/>
        </g>
        <g transform="matrix(1,0,0,1,299.166,-3.12631)">
            <path d="M100.315,0L100.315,612.03" style="fill:none;stroke:rgb(255,243,243);stroke-width:1px;"/>
        </g>
        <g transform="matrix(1,0,0,1,400.4,4.05831)">
            <path d="M100.315,0L100.315,612.03" style="fill:none;stroke:rgb(255,243,243);stroke-width:1px;"/>
        </g>
        <g transform="matrix(1,0,0,1,497.713,5.19872)">
            <path d="M100.315,0L100.315,612.03" style="fill:none;stroke:rgb(255,243,243);stroke-width:1px;"/>
        </g>
        <g transform="matrix(1,0,0,1,599.111,8.43121)">
            <path d="M100.315,0L100.315,612.03" style="fill:none;stroke:rgb(255,243,243);stroke-width:1px;"/>
        </g>
    </g>
    <g transform="matrix(6.12484e-17,-1,1.48614,9.10453e-17,-58.7221,699.87)">
        <g opacity="0.5">
            <path d="M100.315,0L100.315,612.03" style="fill:none;stroke:rgb(255,243,243);stroke-width:0.79px;"/>
            <g transform="matrix(1,0,0,1,101.273,0.058987)">
                <path d="M100.315,0L100.315,612.03" style="fill:none;stroke:rgb(255,243,243);stroke-width:0.79px;"/>
            </g>
            <g transform="matrix(1,0,0,1,198.094,3.14597)">
                <path d="M100.315,0L100.315,612.03" style="fill:none;stroke:rgb(255,243,243);stroke-width:0.79px;"/>
            </g>
            <g transform="matrix(1,0,0,1,299.166,-3.12631)">
                <path d="M100.315,0L100.315,612.03" style="fill:none;stroke:rgb(255,243,243);stroke-width:0.79px;"/>
            </g>
            <g transform="matrix(1,0,0,1,400.4,4.05831)">
                <path d="M100.315,0L100.315,612.03" style="fill:none;stroke:rgb(255,243,243);stroke-width:0.79px;"/>
            </g>
            <g transform="matrix(1,0,0,1,497.713,5.19872)">
                <path d="M100.315,0L100.315,612.03" style="fill:none;stroke:rgb(255,243,243);stroke-width:0.79px;"/>
            </g>
            <g transform="matrix(1,0,0,1,599.111,8.43121)">
                <path d="M100.315,0L100.315,612.03" style="fill:none;stroke:rgb(255,243,243);stroke-width:0.79px;"/>
            </g>
        </g>
    </g>
    <g transform="matrix(1.67298,0,0,1,-356.437,167.495)">
        <path d="M284.582,300L619.564,300" style="fill:none;stroke:rgb(255,193,51);stroke-width:4.35px;"/>
    </g>
    <path d="M159.113,467.495C159.113,467.495 142.501,105.886 209.907,123.572C277.314,141.258 255.621,465.808 325.793,467.495C395.964,469.182 402.051,140.953 486.523,146.644C570.994,152.334 593.769,288.256 599.425,324.275C605.082,360.294 614.768,469.362 652.932,467.495C691.096,465.628 690.048,401.462 690.048,401.462" style="fill:none;stroke:rgb(255,193,51);stroke-width:6px;"/>
</svg>
